<?xml version="1.0" encoding="iso-8859-1"?>
<!-- Generator: Adobe Illustrator 19.0.0, SVG Export Plug-In . SVG Version: 6.00 Build 0)  -->
<svg version="1.1" id="Layer_1" xmlns="http://www.w3.org/2000/svg" xmlns:xlink="http://www.w3.org/1999/xlink" x="0px" y="0px"
	 viewBox="0 0 512.405 512.405" style="enable-background:new 0 0 512.405 512.405;" xml:space="preserve">
<g>
	<path style="fill:#C16B3D;" d="M386.533,259.021c-7.104,0-12.863-5.759-12.863-12.861v-53.503c0-7.105,5.759-12.862,12.863-12.862
		c7.106,0,12.863,5.757,12.863,12.862v53.503C399.394,253.262,393.638,259.021,386.533,259.021z"/>
	<path style="fill:#C16B3D;" d="M436.265,259.021c-7.102,0-12.862-5.759-12.862-12.861v-53.503c0-7.105,5.76-12.862,12.862-12.862
		c7.103,0,12.861,5.757,12.861,12.862v53.503C449.126,253.262,443.368,259.021,436.265,259.021z"/>
	<path style="fill:#C16B3D;" d="M485.997,259.021c-7.104,0-12.862-5.759-12.862-12.861v-53.503c0-7.105,5.758-12.862,12.862-12.862
		c7.105,0,12.863,5.757,12.863,12.862v53.503C498.858,253.262,493.1,259.021,485.997,259.021z"/>
</g>
<path style="fill:#F7AC16;" d="M256.203,149.098c-7.104,0-12.862-5.758-12.862-12.862V82.732
	c0.001-7.103,5.758-12.862,12.862-12.862c7.102,0,12.863,5.759,12.863,12.863v53.504
	C269.065,143.34,263.305,149.098,256.203,149.098z"/>
<g>
	<path style="fill:#FF8828;" d="M60.192,211.863c-7.104,0-12.864-5.759-12.864-12.862v-53.505c0-7.103,5.759-12.864,12.864-12.864
		c7.102,0,12.862,5.761,12.862,12.864v53.505C73.054,206.104,67.294,211.863,60.192,211.863z"/>
	<path style="fill:#FF8828;" d="M110.609,211.863c-7.103,0-12.862-5.759-12.862-12.862v-53.505c0-7.103,5.759-12.864,12.862-12.864
		c7.104,0,12.862,5.761,12.862,12.864v53.505C123.471,206.104,117.713,211.863,110.609,211.863z"/>
</g>
<path style="fill:#C16B3D;" d="M500.057,314.841H353.95c-6.819,0-12.345,5.527-12.345,12.348v115.346h158.452
	c6.819,0,12.348-5.527,12.348-12.347V327.189C512.405,320.367,506.876,314.841,500.057,314.841z"/>
<path style="fill:#F4BD25;" d="M329.257,203.719H183.149c-6.819,0-12.347,5.528-12.347,12.345v226.47h170.803v-226.47
	C341.605,209.246,336.075,203.719,329.257,203.719z"/>
<path style="fill:#ED701B;" d="M12.345,442.534h158.456V276.427c0-6.82-5.528-12.347-12.348-12.347H12.345
	C5.528,264.08,0,269.607,0,276.427v153.76C0,437.007,5.528,442.534,12.345,442.534z"/>
<path style="fill:#D85700;" d="M39.289,285.152c0-7.13,0.427-14.16,1.23-21.073H12.345C5.528,264.08,0,269.607,0,276.427v153.76
	c0,6.82,5.528,12.347,12.345,12.347h118.958C76.382,411.568,39.289,352.696,39.289,285.152z"/>
<path style="fill:#AF532B;" d="M377.812,314.841H353.95c-6.819,0-12.345,5.527-12.345,12.348v115.346h121.543
	C419.974,413.213,388.638,367.762,377.812,314.841z"/>
<path style="fill:#F7AC16;" d="M208.58,273.756c0-24.607,4.36-48.197,12.349-70.038h-37.781c-6.819,0-12.347,5.528-12.347,12.345
	v226.47h127.257C244.059,405.859,208.58,343.951,208.58,273.756z"/>
<g>
</g>
<g>
</g>
<g>
</g>
<g>
</g>
<g>
</g>
<g>
</g>
<g>
</g>
<g>
</g>
<g>
</g>
<g>
</g>
<g>
</g>
<g>
</g>
<g>
</g>
<g>
</g>
<g>
</g>
</svg>
